# xmcd
# 
# Track frame offsets:
#     150
#     9731
#     43847
#     65361
#     143372
#     167262
#     202347
#     238272
# 
# Disc length: 3541
# 
# Revision: 1
# Processed by: cddbd v1.5.2PL0 Copyright (c) Steve Scherf et al.
# Submitted via: fre:ac v1.1beta1pre5
# 
DISCID=6b0dd308
DTITLE=Porcupine Tree - Anesthetize - Live in Tilburg - Oct 2008 [CD 1)
DYEAR=2008
DGENRE=Rock progressif
TTITLE0=Intro
TTITLE1=Fear of a Blank Planet
TTITLE2=My Ashes
TTITLE3=Anesthetize
TTITLE4=Sentimental
TTITLE5=Way Out of Here
TTITLE6=Sleep Together
TTITLE7=Prodigal
EXTD=
EXTT0=
EXTT1=
EXTT2=
EXTT3=
EXTT4=
EXTT5=
EXTT6=
EXTT7=
PLAYORDER=
